<svg width="40" height="80" viewBox="0 0 40 80" fill="none" xmlns="http://www.w3.org/2000/svg">
<g clip-path="url(#clip0_197_7276)">
<path d="M20 20C25.3043 20 30.3914 17.8929 34.1421 14.1421C37.8929 10.3914 40 5.30433 40 0V80C40 74.6957 37.8929 69.6086 34.1421 65.8579C30.3914 62.1071 25.3043 60 20 60C14.6957 60 9.60859 57.8929 5.85786 54.1421C2.10714 50.3914 0 45.3043 0 40C0 34.6957 2.10714 29.6086 5.85786 25.8579C9.60859 22.1071 14.6957 20 20 20Z" fill="#5C5C5C"/>
<path d="M17.124 48.3398C18.7124 48.3398 20 47.7291 20 46.9758C20 46.2225 18.7124 45.6118 17.124 45.6118C15.5357 45.6118 14.248 46.2225 14.248 46.9758C14.248 47.7291 15.5357 48.3398 17.124 48.3398Z" fill="white"/>
<path d="M17.124 34.394C18.7124 34.394 20 33.7833 20 33.03C20 32.2767 18.7124 31.666 17.124 31.666C15.5357 31.666 14.248 32.2767 14.248 33.03C14.248 33.7833 15.5357 34.394 17.124 34.394Z" fill="white"/>
</g>
<defs>
<clipPath id="clip0_197_7276">
<rect width="40" height="80" fill="white"/>
</clipPath>
</defs>
</svg>
